<svg width="50" height="50" viewBox="0 0 50 50" fill="none" xmlns="http://www.w3.org/2000/svg">
<circle cx="25" cy="25" r="24.5" fill="white" stroke="black"/>
<g clip-path="url(#clip0)">
<path fill-rule="evenodd" clip-rule="evenodd" d="M33.4375 7.4309C30.8019 6.86215 28.2011 6.8552 26.1143 7.40952C23.8998 7.99702 22.5011 9.15432 22.1753 10.6678C22.0052 11.4583 22.1502 12.3095 22.5948 13.1426L22.1115 15.3868C20.3678 15.4396 18.3913 15.8498 16.376 16.6397C13.8662 17.6239 11.6947 19.0557 10.2619 20.6718C8.7422 22.3861 8.21638 24.1239 8.78195 25.5648C9.07754 26.3178 9.66931 26.9475 10.5 27.3951L15.624 40.4624C15.8604 41.0648 16.317 41.539 16.91 41.7975C17.2206 41.9331 17.5493 42.001 17.8783 42.001C18.1777 42.001 18.4772 41.9449 18.7643 41.8322L31.807 36.7181C32.3932 36.4884 32.8557 36.0436 33.1094 35.4646C33.3606 34.8874 33.3726 34.2459 33.143 33.6585L32.5398 32.1209L35.1922 32.6924C35.8007 32.8237 36.4496 32.7052 36.9706 32.3676C37.4921 32.0312 37.8662 31.4897 37.9976 30.8824L40.9667 17.1005C41.7152 16.5238 42.1982 15.8071 42.3686 15.0172C43.022 11.9822 39.0988 8.65016 33.4375 7.4309ZM32.1069 35.0267C31.9708 35.3376 31.7224 35.5768 31.4076 35.7002L18.3648 40.8143C18.0343 40.9436 17.6729 40.9372 17.3474 40.7951C17.0225 40.653 16.772 40.3935 16.6425 40.0629L11.4426 26.8028C11.3922 26.6746 11.2955 26.5704 11.1716 26.5101C10.4805 26.1758 10.0191 25.7234 9.79985 25.1653C9.39238 24.1266 9.84716 22.7882 11.0803 21.3976C12.4007 19.9081 14.4232 18.5799 16.7752 17.6576C18.7881 16.8688 20.8036 16.4858 22.5158 16.4858C22.9211 16.4858 23.3097 16.5072 23.6768 16.5499C25.3946 16.7566 26.6024 17.4253 26.9936 18.4223C27.0895 18.6664 27.1373 18.9276 27.1373 19.2047C27.1373 19.5593 27.0587 19.9401 26.9017 20.3433C26.8521 20.4715 26.8523 20.6131 26.9023 20.7412L31.1494 31.5714C31.1505 31.5735 31.1512 31.5762 31.1523 31.5783L32.1245 34.0574C32.2461 34.3682 32.2394 34.7223 32.1069 35.0267ZM41.2994 14.7865C41.1731 15.3718 40.7902 15.893 40.1608 16.3363C40.0484 16.4153 39.9698 16.5339 39.941 16.6679L36.9284 30.6517C36.8579 30.9775 36.6571 31.268 36.3767 31.4491C36.0974 31.6307 35.7503 31.6931 35.4226 31.6232L32.0607 30.899L27.996 20.534C28.2908 19.6667 28.306 18.8288 28.039 18.0944C28.0302 18.0704 28.0211 18.0463 28.012 18.0229C28.0099 18.0181 28.0081 18.0133 28.0061 18.0079C27.3842 16.4453 25.5952 15.5539 23.2266 15.4038L23.7075 13.171C23.7366 13.0364 23.7137 12.8959 23.6437 12.7774C23.2528 12.1156 23.1184 11.4834 23.2445 10.8975C23.4792 9.80691 24.5981 8.94334 26.3947 8.46646C28.3186 7.95535 30.7373 7.96815 33.2071 8.5001C38.1004 9.55376 41.8062 12.4329 41.2994 14.7865Z" fill="black"/>
<path d="M22.8784 26.014C23.4825 26.014 23.9722 25.5243 23.9722 24.9202C23.9722 24.3162 23.4825 23.8265 22.8784 23.8265C22.2744 23.8265 21.7847 24.3162 21.7847 24.9202C21.7847 25.5243 22.2744 26.014 22.8784 26.014Z" fill="black"/>
<path d="M17.4097 31.4827C18.0137 31.4827 18.5034 30.9931 18.5034 30.389C18.5034 29.7849 18.0137 29.2952 17.4097 29.2952C16.8056 29.2952 16.3159 29.7849 16.3159 30.389C16.3159 30.9931 16.8056 31.4827 17.4097 31.4827Z" fill="black"/>
<path d="M25.0659 32.5765C25.67 32.5765 26.1597 32.0868 26.1597 31.4827C26.1597 30.8787 25.67 30.389 25.0659 30.389C24.4619 30.389 23.9722 30.8787 23.9722 31.4827C23.9722 32.0868 24.4619 32.5765 25.0659 32.5765Z" fill="black"/>
<path d="M33.8159 20.5452C34.42 20.5452 34.9097 20.0555 34.9097 19.4515C34.9097 18.8474 34.42 18.3577 33.8159 18.3577C33.2119 18.3577 32.7222 18.8474 32.7222 19.4515C32.7222 20.0555 33.2119 20.5452 33.8159 20.5452Z" fill="black"/>
</g>
<defs>
<clipPath id="clip0">
<rect width="35" height="35" fill="white" transform="translate(8 7)"/>
</clipPath>
</defs>
</svg>
