<svg width="50" height="50" viewBox="0 0 50 50" fill="none" xmlns="http://www.w3.org/2000/svg">
<circle cx="25" cy="25" r="24.5" fill="white" stroke="black"/>
<path d="M38.3821 13.048H36.6642L27.5217 9.39096C25.4878 8.57736 23.2476 8.57736 21.2137 9.39096L12.0713 13.048H10.6178C9.60887 13.048 8.63853 13.4737 7.9554 14.2161C7.27235 14.9585 6.92862 15.9609 7.0124 16.9663L7.18575 19.0466C7.24036 19.7023 7.56681 20.3135 8.08138 20.7237C8.54667 21.0944 9.13802 21.2778 9.7286 21.2409L8.78515 37.7509C8.71812 38.924 9.12553 40.0405 9.93235 40.8947C10.7391 41.7489 11.8305 42.2193 13.0055 42.2193H35.73C36.905 42.2193 37.9964 41.7489 38.8031 40.8947C39.6099 40.0406 40.0173 38.924 39.9503 37.751L38.9879 20.9097L39.0189 20.9174C39.7405 21.0979 40.4909 20.9388 41.0772 20.4809C41.6636 20.0231 41.9999 19.3338 41.9999 18.5898V16.6658C42 14.6709 40.377 13.048 38.3821 13.048ZM21.638 10.4517C23.3982 9.74764 25.3372 9.74764 27.0974 10.4517L33.588 13.048H15.1475L21.638 10.4517ZM38.8097 37.8161C38.8585 38.6721 38.5613 39.4868 37.9725 40.1102C37.3838 40.7335 36.5874 41.0768 35.73 41.0768H13.0055C12.1481 41.0768 11.3517 40.7335 10.7629 40.1102C10.1742 39.4868 9.8769 38.6721 9.9258 37.8161L10.8819 21.0844L15.9147 20.3654C16.2735 20.314 16.6382 20.3084 16.9985 20.3485L26.4273 21.3961C26.629 21.4185 26.8306 21.4297 27.0318 21.4297C27.5137 21.4297 27.9925 21.3655 28.4616 21.2376L33.0382 19.9894C33.7481 19.7957 34.5005 19.7878 35.2142 19.9662L37.827 20.6194L38.8097 37.8161ZM40.8575 18.5898C40.8575 18.9795 40.6813 19.3406 40.3742 19.5804C40.0671 19.8201 39.6741 19.9037 39.296 19.809L35.4913 18.8578C34.5881 18.6319 33.6358 18.6421 32.7376 18.8871L28.1611 20.1353C27.6357 20.2786 27.0949 20.3207 26.5536 20.2607L17.1246 19.213C16.9249 19.1908 16.7241 19.1797 16.5233 19.1797C16.2658 19.1797 16.0083 19.198 15.7531 19.2344L9.75435 20.0913C9.40841 20.1409 9.06688 20.048 8.79337 19.8301C8.51986 19.6121 8.35329 19.3001 8.32427 18.9516L8.2791 18.4096L14.1436 17.5719C15.6843 17.3518 17.2521 17.3006 18.8035 17.4201L24.3239 17.8447C24.6389 17.8692 24.9131 17.6335 24.9373 17.3189C24.9614 17.0044 24.7261 16.7298 24.4115 16.7056L18.8911 16.2809C17.2567 16.1551 15.605 16.209 13.982 16.4409L8.18405 17.2692L8.15092 16.8715C8.09273 16.1735 8.32191 15.5052 8.79619 14.9898C9.27047 14.4743 9.91734 14.1905 10.6178 14.1905H38.3821C39.747 14.1905 40.8575 15.301 40.8575 16.6659V18.5898Z" fill="black"/>
<path d="M39.2469 16.7642L38.0283 16.1549C37.7462 16.0138 37.403 16.1282 37.2619 16.4104C37.1208 16.6926 37.2352 17.0357 37.5174 17.1767L38.736 17.7861C38.818 17.8271 38.9052 17.8465 38.991 17.8465C39.2005 17.8465 39.4023 17.7307 39.5024 17.5306C39.6435 17.2484 39.5291 16.9053 39.2469 16.7642Z" fill="black"/>
<path d="M35.3355 15.4852H35.3078C34.0665 15.4852 32.8266 15.6379 31.6225 15.9389L30.9317 16.1116C30.6256 16.1882 30.4395 16.4983 30.516 16.8043C30.5809 17.0639 30.8138 17.2372 31.0698 17.2372C31.1157 17.2372 31.1623 17.2316 31.2088 17.22L31.8996 17.0472C33.0133 16.7688 34.1599 16.6276 35.3079 16.6276H35.3356C35.6511 16.6276 35.9069 16.3719 35.9069 16.0564C35.9069 15.7409 35.651 15.4852 35.3355 15.4852Z" fill="black"/>
<path d="M35.5795 24.0101C35.5968 24.314 35.8487 24.5487 36.1493 24.5487C36.1603 24.5487 36.1713 24.5484 36.1824 24.5478C36.4974 24.5298 36.7381 24.2599 36.7202 23.9449L36.6518 22.748C36.6338 22.4331 36.3641 22.1923 36.0488 22.2103C35.7338 22.2283 35.4931 22.4982 35.5111 22.8132L35.5795 24.0101Z" fill="black"/>
<path d="M36.2565 25.8448C35.9415 25.8627 35.7008 26.1327 35.7188 26.4477L36.1714 34.3684C36.1887 34.6723 36.4406 34.907 36.7411 34.907C36.7521 34.907 36.7632 34.9067 36.7743 34.9061C37.0893 34.8881 37.33 34.6182 37.312 34.3032L36.8594 26.3825C36.8414 26.0676 36.571 25.8273 36.2565 25.8448Z" fill="black"/>
<path d="M27.719 28.5095C27.8652 28.5095 28.0114 28.4537 28.1229 28.3422L29.6462 26.8189C29.8693 26.5958 29.8693 26.2341 29.6462 26.0111C29.4231 25.788 29.0614 25.788 28.8384 26.0111L27.3151 27.5344C27.092 27.7574 27.092 28.1192 27.3151 28.3422C27.4266 28.4537 27.5728 28.5095 27.719 28.5095Z" fill="black"/>
<path d="M26.5996 29.0577C26.3765 28.8346 26.0148 28.8346 25.7918 29.0577L18.7846 36.0649C18.5615 36.288 18.5615 36.6497 18.7846 36.8727C18.8961 36.9842 19.0423 37.04 19.1885 37.04C19.3347 37.04 19.4809 36.9843 19.5924 36.8727L26.5996 29.8655C26.8227 29.6424 26.8227 29.2807 26.5996 29.0577Z" fill="black"/>
<path d="M21.9305 31.8608C22.2459 31.8608 22.5017 31.605 22.5017 31.2896V29.4616C22.5017 29.1461 22.2459 28.8904 21.9305 28.8904C21.615 28.8904 21.3592 29.1461 21.3592 29.4616V31.2896C21.3592 31.605 21.615 31.8608 21.9305 31.8608Z" fill="black"/>
<path d="M26.1957 33.1556H24.3677C24.0523 33.1556 23.7965 33.4114 23.7965 33.7268C23.7965 34.0423 24.0523 34.2981 24.3677 34.2981H26.1957C26.5112 34.2981 26.7669 34.0423 26.7669 33.7268C26.7669 33.4114 26.5112 33.1556 26.1957 33.1556Z" fill="black"/>
<path d="M20.1025 33.6887C20.418 33.6887 20.6737 33.433 20.6737 33.1175V31.2895C20.6737 30.9741 20.418 30.7183 20.1025 30.7183C19.787 30.7183 19.5312 30.9741 19.5312 31.2895V33.1175C19.5312 33.433 19.787 33.6887 20.1025 33.6887Z" fill="black"/>
<path d="M24.3677 34.9836H22.5398C22.2243 34.9836 21.9685 35.2393 21.9685 35.5548C21.9685 35.8703 22.2243 36.126 22.5398 36.126H24.3677C24.6832 36.126 24.939 35.8703 24.939 35.5548C24.939 35.2393 24.6832 34.9836 24.3677 34.9836Z" fill="black"/>
<path d="M23.7584 30.0328C24.0739 30.0328 24.3296 29.777 24.3296 29.4616V27.6336C24.3296 27.3181 24.0739 27.0623 23.7584 27.0623C23.4429 27.0623 23.1872 27.3181 23.1872 27.6336V29.4616C23.1872 29.777 23.4429 30.0328 23.7584 30.0328Z" fill="black"/>
<path d="M28.0237 31.3276H26.1957C25.8802 31.3276 25.6245 31.5834 25.6245 31.8989C25.6245 32.2144 25.8802 32.4701 26.1957 32.4701H28.0237C28.3391 32.4701 28.5949 32.2144 28.5949 31.8989C28.5949 31.5834 28.3391 31.3276 28.0237 31.3276Z" fill="black"/>
<path d="M25.5864 28.2048C25.9019 28.2048 26.1576 27.9491 26.1576 27.6336V25.8056C26.1576 25.4901 25.9019 25.2344 25.5864 25.2344C25.2709 25.2344 25.0151 25.4901 25.0151 25.8056V27.6336C25.0151 27.9491 25.2709 28.2048 25.5864 28.2048Z" fill="black"/>
<path d="M29.8516 29.4997H28.0237C27.7082 29.4997 27.4524 29.7554 27.4524 30.0709C27.4524 30.3864 27.7082 30.6421 28.0237 30.6421H29.8516C30.1671 30.6421 30.4229 30.3864 30.4229 30.0709C30.4229 29.7554 30.1671 29.4997 29.8516 29.4997Z" fill="black"/>
</svg>
