<svg width="50" height="50" viewBox="0 0 50 50" fill="none" xmlns="http://www.w3.org/2000/svg">
<circle cx="25" cy="25" r="24.5" fill="white" stroke="black"/>
<g clip-path="url(#clip0)">
<path d="M32.8269 10.4807C29.4171 10.4807 26.24 14.5738 24.6306 20.9576C22.1178 20.3206 19.3988 19.9701 16.7703 19.9701C13.7615 19.9701 11.2285 20.9842 9.4451 22.9017C7.86859 24.5977 7 26.8714 7 29.3026C7 33.6342 9.86959 38.2953 16.1712 38.2953C16.2616 38.2953 16.3515 38.3004 16.4407 38.3055C16.5514 38.3112 16.6615 38.3168 16.7703 38.3168C20.3193 38.3168 24.0341 37.6804 27.1807 36.5569C28.8319 37.8417 30.9056 38.5193 32.9996 38.5193C34.361 38.5193 35.7288 38.2359 36.989 37.6545C40.1603 36.1906 41.9791 33.1635 41.9791 29.3513C41.9791 29.2608 41.9842 29.171 41.9892 29.0818C41.9949 28.9711 42.0006 28.861 42.0006 28.7522C42 20.1099 38.2327 10.4807 32.8269 10.4807ZM16.5071 37.0421C16.3958 37.0358 16.2831 37.0301 16.1712 37.0301C10.7394 37.0301 8.26525 33.0243 8.26525 29.3026C8.26525 27.1915 9.01365 25.224 10.3719 23.7633C11.9098 22.1096 14.1221 21.2353 16.7703 21.2353C19.4766 21.2353 22.1362 21.6041 24.5199 22.2336L24.9178 22.3443C25.5593 22.5227 26.1717 22.7195 26.7563 22.9295C26.8613 22.9675 26.9644 23.0067 27.0675 23.0459C27.2016 23.0965 27.3338 23.1478 27.4648 23.1996C27.6242 23.2635 27.7836 23.3268 27.9393 23.3932C27.9494 23.3976 27.9595 23.4021 27.9703 23.4065C29.9675 24.2612 31.5794 25.3132 32.5941 26.4614C32.6302 26.5026 32.6681 26.5437 32.7029 26.5854C32.7706 26.6658 32.8339 26.7468 32.8959 26.8284C32.9484 26.898 32.9984 26.9682 33.0465 27.0384C33.092 27.1042 33.1388 27.1706 33.1799 27.237C33.2641 27.3731 33.3419 27.5097 33.4089 27.647C33.426 27.6818 33.438 27.7166 33.4539 27.7514C33.5057 27.8659 33.5526 27.9804 33.5918 28.0955C33.6082 28.1436 33.6221 28.1923 33.6367 28.2404C33.6683 28.3473 33.6943 28.4542 33.7145 28.5618C33.7234 28.6067 33.7328 28.651 33.7398 28.6959C33.762 28.8452 33.7765 28.9945 33.7765 29.1438C33.7765 29.2773 33.7664 29.4107 33.7487 29.5449C33.7423 29.5936 33.7303 29.6417 33.7215 29.6904C33.7063 29.7739 33.6911 29.8574 33.6696 29.9415C33.6531 30.0054 33.631 30.0687 33.6108 30.1319C33.5892 30.1977 33.5684 30.2635 33.5431 30.33C33.5133 30.4059 33.4798 30.4818 33.445 30.5571C33.4222 30.607 33.3988 30.6564 33.3741 30.7064C33.3286 30.7956 33.2799 30.8841 33.2274 30.9727C33.209 31.0031 33.1907 31.0334 33.1717 31.0638C33.1053 31.1694 33.0363 31.2745 32.9598 31.3788C32.9566 31.3826 32.9535 31.3864 32.9509 31.3909C31.9862 32.7023 30.2332 33.9087 28 34.8684C27.9785 34.8779 27.9576 34.8874 27.9361 34.8962C27.8191 34.9462 27.6976 34.9937 27.578 35.0424C27.442 35.0974 27.306 35.1525 27.1656 35.2056C24.2017 36.3399 20.5312 37.0522 16.7709 37.0522C16.6836 37.051 16.5957 37.0465 16.5071 37.0421ZM40.7259 29.0147C40.7196 29.1261 40.7139 29.2387 40.7139 29.3507C40.7139 32.6492 39.1633 35.2568 36.4582 36.5056C33.922 37.6754 30.8867 37.4558 28.582 36.0071C32.3702 34.38 35.0405 31.9893 35.0405 29.1431C35.0405 28.9502 35.0247 28.7604 35.0006 28.5719C34.9981 28.551 34.993 28.5301 34.9899 28.5093C34.5369 25.312 30.7013 22.7492 25.8434 21.2935C27.2832 15.5575 30.0529 11.7459 32.8257 11.7459C36.8903 11.7459 40.7335 20.0099 40.7335 28.7516C40.7347 28.8389 40.7297 28.9268 40.7259 29.0147Z" fill="black"/>
<path d="M12.5349 23.5678C10.8654 24.7451 9.84873 26.6512 9.74498 28.7977C9.72853 29.1469 9.9974 29.4436 10.3466 29.4601C10.3567 29.4607 10.3668 29.4607 10.3776 29.4607C10.7129 29.4607 10.9925 29.1969 11.009 28.8585C11.0937 27.1048 11.9155 25.553 13.2636 24.6022C13.549 24.401 13.6179 24.0062 13.4161 23.7203C13.2143 23.435 12.8202 23.3673 12.5349 23.5678Z" fill="black"/>
<path d="M16.9164 22.283C16.1066 22.283 15.3361 22.3842 14.6263 22.5841C14.2897 22.6783 14.0936 23.0282 14.1885 23.3641C14.267 23.6431 14.5206 23.8253 14.7971 23.8253C14.854 23.8253 14.9122 23.8177 14.9685 23.8019C15.567 23.633 16.2224 23.5482 16.9164 23.5482C17.2662 23.5482 17.549 23.2654 17.549 22.9156C17.549 22.5657 17.2662 22.283 16.9164 22.283Z" fill="black"/>
<path d="M35.5921 17.1543C36.1735 18.0317 36.6353 19.0395 36.9649 20.1498C37.0465 20.4249 37.2983 20.6027 37.5716 20.6027C37.6311 20.6027 37.6912 20.5945 37.7513 20.5768C38.0859 20.4775 38.2776 20.1251 38.1783 19.7904C37.8133 18.5593 37.2971 17.4371 36.6461 16.4552C36.4525 16.1642 36.0609 16.0832 35.7693 16.2781C35.4789 16.4704 35.3992 16.8626 35.5921 17.1543Z" fill="black"/>
<path d="M32.7225 13.0479C32.3948 12.9321 32.0349 13.1029 31.9172 13.43C31.7989 13.7583 31.9691 14.1202 32.2968 14.2391C32.3044 14.2423 33.0661 14.5263 33.996 15.3279C34.1156 15.431 34.263 15.4816 34.4091 15.4816C34.5863 15.4816 34.7634 15.4076 34.888 15.2621C35.1164 14.997 35.0867 14.5978 34.8222 14.3701C33.6987 13.4015 32.7624 13.0624 32.7225 13.0479Z" fill="black"/>
</g>
<defs>
<clipPath id="clip0">
<rect width="35" height="35" fill="white" transform="translate(7 7)"/>
</clipPath>
</defs>
</svg>
