<svg width="50" height="50" viewBox="0 0 50 50" fill="none" xmlns="http://www.w3.org/2000/svg">
<circle cx="25" cy="25" r="24.5" fill="white" stroke="black"/>
<path d="M11.4367 18.072C11.4375 18.0646 11.4388 18.0573 11.4398 18.05C11.4411 18.0405 11.4423 18.0309 11.4441 18.0215C11.4458 18.0126 11.448 18.0039 11.4502 17.9952C11.4521 17.9875 11.4539 17.9799 11.4561 17.9723C11.4587 17.9632 11.4618 17.9543 11.4649 17.9453C11.4673 17.9383 11.4698 17.9314 11.4725 17.9245C11.476 17.9156 11.4798 17.9069 11.4837 17.8984C11.4868 17.8915 11.4901 17.8848 11.4935 17.8781C11.4976 17.87 11.5019 17.862 11.5065 17.8541C11.5105 17.8471 11.5147 17.8403 11.5189 17.8335C11.5236 17.8262 11.5283 17.819 11.5333 17.812C11.5382 17.805 11.5433 17.7983 11.5486 17.7915C11.5536 17.785 11.5587 17.7785 11.5641 17.7723C11.566 17.7699 11.5678 17.7675 11.5697 17.7652L17.3688 11.1933V8.54255C17.3688 8.24285 17.6117 8 17.9114 8H32.0886C32.3883 8 32.6312 8.24285 32.6312 8.54255V11.1933L38.4301 17.7652C38.4321 17.7674 38.4338 17.7698 38.4356 17.772C38.4412 17.7785 38.4464 17.7852 38.4516 17.7919C38.4567 17.7984 38.4617 17.805 38.4664 17.8117C38.4715 17.819 38.4764 17.8264 38.4812 17.834C38.4853 17.8405 38.4894 17.8471 38.4932 17.8538C38.4979 17.8619 38.5023 17.8701 38.5066 17.8784C38.5099 17.885 38.513 17.8915 38.5161 17.8981C38.5201 17.9069 38.524 17.9157 38.5275 17.9247C38.5302 17.9314 38.5326 17.9382 38.535 17.945C38.5381 17.954 38.5413 17.9632 38.5439 17.9724C38.5461 17.9799 38.5479 17.9874 38.5497 17.995C38.5519 18.0038 38.5541 18.0126 38.5558 18.0215C38.5576 18.0309 38.5588 18.0403 38.5601 18.0498C38.5612 18.0573 38.5625 18.0646 38.5632 18.0721C38.5648 18.0893 38.5658 18.1068 38.5658 18.1242V41.4574C38.5658 41.7572 38.3229 42 38.0232 42H11.9766C11.6768 42 11.434 41.7572 11.434 41.4574V18.1242C11.4341 18.1067 11.4351 18.0893 11.4367 18.072ZM13.179 17.5816H22.6437L17.9114 12.2184L13.179 17.5816ZM18.4539 9.08511V10.8559H27.7482C28.0478 10.8559 28.2908 11.0987 28.2908 11.3984C28.2908 11.6981 28.0478 11.941 27.7482 11.941H19.1137L24.0908 17.5817H36.821L31.8438 11.941H29.9184C29.6188 11.941 29.3759 11.6981 29.3759 11.3984C29.3759 11.0987 29.6188 10.8559 29.9184 10.8559H31.5461V9.08511H18.4539ZM37.4807 23.0072H24.3886V36.5745H37.4807V23.0072ZM24.3886 21.9221H37.4807V18.6667H24.3886V21.9221ZM37.4807 37.6596H24.3886V40.9149H37.4807V37.6596ZM23.3035 40.9149V18.6667H12.5192V21.9221H21.6758C21.9755 21.9221 22.2184 22.1649 22.2184 22.4646C22.2184 22.7643 21.9755 23.0072 21.6758 23.0072H12.5192V36.5745H21.6758C21.9755 36.5745 22.2184 36.8173 22.2184 37.117C22.2184 37.4167 21.9755 37.6596 21.6758 37.6596H12.5192V40.9149H23.3035Z" fill="black"/>
<path d="M27.8363 28.5984L30.5001 25.0335C30.6025 24.8964 30.7636 24.8157 30.9347 24.8157C31.1058 24.8157 31.2669 24.8964 31.3693 25.0335L34.0336 28.5992C34.5327 29.2694 34.7966 30.0664 34.7966 30.904C34.7966 33.0335 33.0641 34.766 30.9347 34.766C28.8053 34.766 27.0728 33.0335 27.0728 30.904C27.0728 30.0664 27.3366 29.2694 27.8363 28.5984ZM30.9347 33.6808C32.4658 33.6808 33.7115 32.4351 33.7115 30.904C33.7115 30.3016 33.5219 29.7287 33.1638 29.2479L30.9347 26.2647L28.706 29.2472C28.3474 29.7287 28.1579 30.3016 28.1579 30.9039C28.1579 32.4351 29.4036 33.6808 30.9347 33.6808Z" fill="black"/>
</svg>
