<svg width="50" height="50" viewBox="0 0 50 50" fill="none" xmlns="http://www.w3.org/2000/svg">
<circle cx="25" cy="25" r="24.5" fill="white" stroke="black"/>
<path d="M27.5238 14.7862H21.4762C21.1631 14.7862 20.9093 14.5323 20.9093 14.2192C20.9093 13.9061 21.1631 13.6523 21.4762 13.6523H27.5238C27.8369 13.6523 28.0907 13.9061 28.0907 14.2192C28.0907 14.5323 27.8369 14.7862 27.5238 14.7862Z" fill="black"/>
<path d="M14.0392 36.8967L18.9355 14.8041C18.9364 14.8001 18.9374 14.7962 18.9383 14.7921C19.0423 14.3667 19.095 13.9289 19.095 13.4908V13.0097C19.095 12.6554 18.8068 12.3672 18.4525 12.3672C18.1394 12.3672 17.8855 12.1133 17.8855 11.8002C17.8855 11.4871 18.1394 11.2333 18.4525 11.2333H18.9104L18.5681 10.0354C18.361 9.31038 18.5025 8.5493 18.9566 7.94727C19.4107 7.34524 20.1036 7 20.8577 7H28.1423C28.8963 7 29.5892 7.34524 30.0433 7.94727C30.4974 8.5493 30.639 9.31038 30.4319 10.0354L30.0897 11.2333H30.5475C30.8606 11.2333 31.1145 11.4871 31.1145 11.8002C31.1145 12.1133 30.8606 12.3672 30.5475 12.3672C30.1932 12.3672 29.905 12.6554 29.905 13.0097V13.4908C29.905 13.9289 29.9577 14.3667 30.0618 14.7921C30.0627 14.7962 30.0636 14.8001 30.0646 14.8041L34.9608 36.8967C35.2376 38.1453 34.9372 39.4334 34.1366 40.4307C33.3362 41.428 32.1437 42 30.8648 42H18.1352C16.8563 42 15.6638 41.428 14.8633 40.4307C14.0628 39.4334 13.7624 38.1453 14.0392 36.8967ZM29.3416 9.72388C29.4502 9.34409 29.376 8.94549 29.1382 8.63011C28.9003 8.31473 28.5373 8.13391 28.1424 8.13391H26.8812V8.17171C26.8812 8.48482 26.6274 8.73866 26.3143 8.73866C26.0012 8.73866 25.7473 8.48482 25.7473 8.17171V8.13391H23.2527V8.17171C23.2527 8.48482 22.9989 8.73866 22.6858 8.73866C22.3726 8.73866 22.1188 8.48482 22.1188 8.17171V8.13391H20.8577C20.4627 8.13391 20.0998 8.31481 19.8619 8.63011C19.624 8.94541 19.5498 9.34409 19.6584 9.72388L20.0896 11.2333H28.9104L29.3416 9.72388ZM15.7476 39.7209C16.3318 40.4487 17.202 40.8661 18.1352 40.8661H30.8648C31.798 40.8661 32.6682 40.4487 33.2523 39.7209C33.8365 38.9931 34.0557 38.0532 33.8538 37.1421L28.9587 15.0554C28.8342 14.5437 28.7711 14.0174 28.7711 13.4908V13.0097C28.7711 12.7832 28.8136 12.5665 28.8913 12.3672H20.1088C20.1864 12.5665 20.229 12.7832 20.229 13.0097V13.4908C20.229 14.0174 20.1658 14.5437 20.0413 15.0553L15.1462 37.142C14.9443 38.0532 15.1635 38.9932 15.7476 39.7209Z" fill="black"/>
<path d="M20.906 19.7132C21.2117 19.7809 21.4046 20.0837 21.3368 20.3894L19.8625 27.0417C19.8039 27.3061 19.5696 27.486 19.3095 27.486C19.2689 27.486 19.2277 27.4817 19.1863 27.4725C18.8806 27.4048 18.6877 27.102 18.7555 26.7963L20.2298 20.144C20.2975 19.8384 20.5998 19.6453 20.906 19.7132Z" fill="black"/>
<path d="M21.7101 16.0848C22.0158 16.1525 22.2088 16.4553 22.141 16.761L21.873 17.97C21.8144 18.2344 21.5801 18.4144 21.32 18.4144C21.2794 18.4144 21.2381 18.41 21.1968 18.4008C20.8911 18.3331 20.6982 18.0303 20.766 17.7246L21.034 16.5156C21.1017 16.2099 21.4046 16.0169 21.7101 16.0848Z" fill="black"/>
<path d="M18.2193 29.2153C18.2768 28.9558 18.507 28.7711 18.7728 28.7711H30.2272C30.4931 28.7711 30.7233 28.9558 30.7807 29.2153L32.5991 37.4201C32.7596 38.144 32.4494 38.6683 32.2502 38.9165C32.051 39.1647 31.6062 39.5811 30.8648 39.5811H18.1352C17.3937 39.5811 16.9489 39.1647 16.7497 38.9165C16.5506 38.6683 16.2403 38.1439 16.4008 37.4201L18.2193 29.2153ZM17.6341 38.2068C17.7221 38.3164 17.8805 38.4471 18.1352 38.4471H30.8648C31.1195 38.4471 31.2778 38.3164 31.3658 38.2068C31.4538 38.0971 31.5472 37.9141 31.4921 37.6655L29.7722 29.905H19.2279L17.508 37.6655C17.4528 37.9141 17.5461 38.0971 17.6341 38.2068Z" fill="black"/>
<path d="M24.5 8.81427C24.6489 8.81427 24.7956 8.87475 24.9007 8.98058C25.0065 9.08565 25.067 9.23155 25.067 9.38122C25.067 9.53014 25.0065 9.6768 24.9007 9.78187C24.7956 9.8877 24.6489 9.94818 24.5 9.94818C24.3511 9.94818 24.2044 9.8877 24.0994 9.78187C23.9935 9.6768 23.9331 9.53014 23.9331 9.38122C23.9331 9.2323 23.9935 9.08565 24.0994 8.98058C24.2044 8.87475 24.3511 8.81427 24.5 8.81427Z" fill="black"/>
</svg>
