<svg width="50" height="50" viewBox="0 0 50 50" fill="none" xmlns="http://www.w3.org/2000/svg">
<circle cx="25" cy="25" r="24.5" fill="white" stroke="black"/>
<g clip-path="url(#clip0)">
<path d="M41.3721 35.6217C41.3364 35.6059 37.8087 34.0152 33.2647 31.0683C33.1163 30.8038 32.9532 30.5441 32.7703 30.2924C32.6351 30.1063 32.4904 29.9251 32.3368 29.7492C32.5644 29.6972 32.7879 29.6356 33.0065 29.5644C37.3448 28.155 39.472 23.1621 39.5604 22.9502C39.7624 22.4664 39.5809 21.9079 39.1331 21.6352C38.9624 21.5312 35.4086 19.4036 31.6278 19.7872C33.5253 17.3434 35.0426 14.8384 36.1566 12.3055C36.1667 12.2827 36.176 12.2595 36.1842 12.236C36.8408 10.4027 36.7603 9.33094 35.9312 8.86306C34.8747 8.26657 33.8 9.22723 32.1857 11.208C31.8155 11.6623 31.8836 12.3306 32.338 12.7009C32.7083 13.0027 33.2209 13.0129 33.5979 12.7607C32.4941 14.965 31.059 17.1483 29.3127 19.2859C29.0852 14.9176 25.2278 11.5546 25.0589 11.4096C24.6612 11.0681 24.0738 11.0681 23.6762 11.4096C23.5111 11.5515 19.8261 14.7665 19.4455 18.9889C17.8077 16.9464 16.4541 14.8632 15.4012 12.7606C15.7785 13.0136 16.2911 13.003 16.6615 12.701C17.1158 12.3308 17.184 11.6624 16.8139 11.2081C15.2 9.22709 14.1252 8.26756 13.0684 8.86306C12.2394 9.33108 12.1587 10.4028 12.815 12.2361C12.8234 12.2596 12.8327 12.2828 12.8428 12.3056C13.9625 14.851 15.4889 17.368 17.3998 19.8235C13.5118 19.2943 9.77743 21.529 9.60227 21.6355C9.15448 21.9083 8.97296 22.467 9.175 22.9507C9.26342 23.1625 11.3912 28.1553 15.7294 29.5646C15.9482 29.6358 16.1716 29.6973 16.3994 29.7494C16.2457 29.9252 16.1013 30.1063 15.966 30.2925C15.7232 30.6264 15.5135 30.9737 15.3309 31.329C10.994 34.1022 7.66128 35.6067 7.62747 35.6219C7.0928 35.8614 6.85342 36.489 7.0928 37.0238C7.26923 37.4178 7.65633 37.6517 8.06196 37.6517C8.20684 37.6517 8.35412 37.6219 8.49503 37.5589C8.61501 37.5051 10.9838 36.4372 14.3733 34.4153C13.9848 37.0331 14.5164 39.3498 14.551 39.4959C14.6654 39.9775 15.0955 40.3123 15.5829 40.3123C15.6116 40.3123 15.6406 40.3111 15.6697 40.3089C15.8985 40.2902 21.304 39.8096 23.9855 36.1187C24.1206 35.9328 24.2481 35.7394 24.3679 35.539C24.4878 35.7394 24.6152 35.9327 24.7503 36.1187C27.4321 39.8099 32.8376 40.2902 33.0664 40.3089C33.5909 40.3496 34.0643 40.006 34.1851 39.4961C34.2204 39.3465 34.7738 36.9292 34.3343 34.2403C37.8761 36.3741 40.3783 37.5024 40.5049 37.559C40.6457 37.622 40.793 37.6518 40.938 37.6518C41.3434 37.6518 41.7306 37.4181 41.9072 37.024C42.1466 36.489 41.907 35.8611 41.3721 35.6217ZM37.167 23.0029C36.44 24.319 34.8118 26.7467 32.351 27.5461C31.5623 27.8023 30.6738 27.891 29.7121 27.8099C29.2199 27.7705 28.7659 28.071 28.6138 28.5394C28.5781 28.6491 28.562 28.7612 28.5626 28.8719L28.3433 27.5937L30.779 25.2197C31.0682 24.9377 31.1722 24.5159 31.0474 24.1318C30.9226 23.7475 30.5906 23.4677 30.1908 23.4097L28.683 23.1905C29.3011 22.7168 29.9436 22.3681 30.5991 22.1552C33.0485 21.3595 35.8024 22.3674 37.167 23.0029ZM26.1572 27.4027L26.463 29.186L24.8617 28.344C24.707 28.2628 24.5376 28.2222 24.3679 28.2222C24.1983 28.2222 24.0286 28.2628 23.8741 28.344L22.2731 29.186L22.5789 27.4027C22.6379 27.0585 22.5237 26.7074 22.2737 26.4634L20.9781 25.2007L22.7685 24.9405C23.1141 24.8904 23.4129 24.6731 23.5674 24.36L24.3679 22.7376L25.1686 24.36C25.3232 24.6733 25.6219 24.8903 25.9675 24.9405L27.7578 25.2007L26.4623 26.4634C26.2123 26.7074 26.0981 27.0585 26.1572 27.4027ZM24.3695 13.7026C25.3965 14.8006 27.2019 17.0994 27.2019 19.6873C27.2019 20.5168 27.0118 21.3889 26.637 22.2795C26.6152 22.3312 26.5991 22.3839 26.5861 22.4367L25.3195 19.8702C25.1407 19.508 24.7718 19.2787 24.3679 19.2787C23.964 19.2787 23.5951 19.508 23.4163 19.8702L22.1496 22.4373C22.1339 22.3729 22.1137 22.3094 22.0858 22.2484C21.7195 21.3685 21.5339 20.507 21.5339 19.6873C21.5339 17.1115 23.3433 14.804 24.3695 13.7026ZM16.3851 27.5462C13.9357 26.7505 12.3003 24.3166 11.5697 23C12.9315 22.3627 15.6757 21.3558 18.1369 22.1554C18.7925 22.3685 19.4351 22.717 20.0533 23.1905L18.5452 23.4097C18.1455 23.4677 17.8133 23.7477 17.6885 24.1318C17.5638 24.5159 17.6679 24.9376 17.9569 25.2197L20.3927 27.5937L20.1745 28.8662C20.1741 28.3327 19.777 27.8804 19.2454 27.8139C19.1646 27.8041 19.0837 27.8034 19.0038 27.8113C18.0492 27.8903 17.168 27.8007 16.3851 27.5462ZM32.2766 38.0483C30.8004 37.7635 27.9884 36.9651 26.4672 34.8712C25.9865 34.2093 25.6308 33.4057 25.4101 32.4821C25.3349 32.0954 25.0462 31.7672 24.6414 31.6592C24.0872 31.5122 23.5161 31.8313 23.3514 32.3804C23.3439 32.4054 23.3372 32.4304 23.3317 32.4559C23.1111 33.3908 22.7535 34.2034 22.2683 34.8712C20.7552 36.9539 17.9374 37.7574 16.4588 38.0459C16.276 36.5497 16.1696 33.6219 17.6826 31.5397C18.1635 30.8775 18.8187 30.2905 19.6304 29.7946C19.8563 29.6686 20.0285 29.4617 20.1144 29.2151L19.8174 30.9464C19.7491 31.3446 19.9129 31.7468 20.2396 31.9844C20.5664 32.2215 20.9996 32.2527 21.357 32.065L24.3673 30.4821L27.3779 32.065C27.5333 32.1466 27.7028 32.1868 27.8716 32.1868C27.8727 32.1868 27.8737 32.1868 27.8747 32.1868C28.4607 32.1867 28.9355 31.7117 28.9355 31.1257C28.9355 31.0367 28.9246 30.9504 28.904 30.8678L28.6206 29.2158C28.6998 29.4431 28.8552 29.6435 29.0729 29.7753C29.899 30.2751 30.5651 30.8688 31.0527 31.5397C32.5672 33.6234 32.4596 36.5539 32.2766 38.0483Z" fill="black"/>
</g>
<defs>
<clipPath id="clip0">
<rect width="35" height="35" fill="white" transform="translate(7 7)"/>
</clipPath>
</defs>
</svg>
